<?xml version="1.0" standalone="no"?>
<!DOCTYPE svg PUBLIC "-//W3C//DTD SVG 20010904//EN"
 "http://www.w3.org/TR/2001/REC-SVG-20010904/DTD/svg10.dtd">
<svg version="1.0" xmlns="http://www.w3.org/2000/svg"
 width="225.000000pt" height="225.000000pt" viewBox="0 0 225.000000 225.000000"
 preserveAspectRatio="xMidYMid meet">
<g transform="translate(0.000000,225.000000) scale(0.100000,-0.100000)"
fill="#000000" stroke="none">
<path d="M567 1522 c-306 -163 -557 -299 -557 -302 0 -3 98 -62 218 -132 l217
-126 5 -108 5 -108 45 -22 c196 -98 892 -111 1184 -23 116 35 116 34 116 155
l0 103 98 60 97 60 3 -89 c2 -80 0 -93 -20 -120 -21 -29 -21 -33 -7 -58 21
-38 77 -38 98 0 14 25 14 29 -7 57 -19 27 -22 42 -22 133 l0 103 100 55 c55
30 100 57 100 60 0 4 -451 247 -980 527 l-136 72 -557 -297z m722 -203 c207
-19 372 -75 461 -155 22 -20 40 -45 40 -55 0 -24 -12 -24 -34 0 -29 31 -140
81 -241 106 -321 82 -821 40 -991 -83 -62 -45 -64 -45 -64 -22 0 52 160 145
312 180 163 37 330 47 517 29z m262 -483 c106 -17 182 -42 176 -60 -7 -22 -75
-45 -187 -63 -163 -25 -675 -25 -835 0 -107 17 -175 41 -182 63 -8 26 117 57
293 74 139 13 622 4 735 -14z"/>
<path d="M1966 660 c-4 -52 -9 -124 -12 -160 -6 -62 -5 -64 11 -42 21 29 72
55 96 49 18 -5 19 2 19 121 l0 127 -54 0 -54 0 -6 -95z"/>
</g>
</svg>
